# xmcd
#
# Track frame offsets: 
#        150
#        25535
#        42710
#        62467
#        81230
#        104132
#
# Disc length: 1724 seconds
#
# Revision: 6
# Processed by: cddbd v1.5.2PL0 Copyright (c) Steve Scherf et al.
# Submitted via: ExactAudioCopyFreeDBPlugin 1.0
#
DISCID=4a06ba06
DTITLE=Samy Deluxe - Weck mich auf EP
DYEAR=2001
DGENRE=Hip Hop
TTITLE0=Weck mich auf
TTITLE1=Das Team
TTITLE2=2 Rap 4 feat. Tony Rotten
TTITLE3=Sag mir was du siehst
TTITLE4=Sell Out Samy
TTITLE5=Weck mich auf (Instrumental)
EXTD=YEAR: 2001 ID3G: 7
EXTT0=
EXTT1=
EXTT2=
EXTT3=
EXTT4=
EXTT5=
PLAYORDER=
